<?xml version="1.0" standalone="no"?>
<!DOCTYPE svg PUBLIC "-//W3C//DTD SVG 20010904//EN"
 "http://www.w3.org/TR/2001/REC-SVG-20010904/DTD/svg10.dtd">
<svg version="1.0" xmlns="http://www.w3.org/2000/svg"
 width="566.000000pt" height="566.000000pt" viewBox="0 0 566.000000 566.000000"
 preserveAspectRatio="xMidYMid meet">
<metadata>
Created by potrace 1.14, written by Peter Selinger 2001-2017
</metadata>
<g transform="translate(0.000000,566.000000) scale(0.100000,-0.100000)"
fill="#000000" stroke="none">
<path d="M2697 5646 c-26 -7 -51 -14 -55 -15 -29 -6 -111 -37 -162 -62 -33
-16 -62 -29 -64 -29 -2 0 -41 -22 -87 -48 -46 -27 -95 -55 -109 -63 -14 -8
-28 -18 -31 -22 -3 -5 -9 -8 -13 -8 -3 1 -16 -5 -29 -13 -12 -7 -103 -60 -202
-116 -99 -57 -211 -122 -250 -145 -38 -23 -77 -45 -85 -48 -8 -4 -28 -16 -45
-26 -16 -10 -154 -89 -305 -176 -151 -87 -312 -179 -358 -206 -45 -27 -87 -49
-92 -49 -6 0 -10 -4 -10 -10 0 -5 -5 -10 -11 -10 -26 0 -192 -122 -265 -195
-140 -140 -205 -270 -241 -484 -10 -61 -10 -2149 0 -2223 18 -126 72 -271 127
-338 24 -30 6 -52 165 196 66 103 152 237 190 297 l71 109 -30 59 c-24 50 -29
72 -29 130 0 38 5 75 11 82 6 6 11 15 11 20 3 31 65 109 111 138 72 45 189 57
262 26 21 -9 38 -14 38 -12 0 7 38 -25 71 -60 47 -48 80 -132 82 -204 0 -7 16
-20 36 -27 20 -8 50 -21 66 -28 17 -8 68 -30 115 -49 47 -20 173 -72 280 -116
107 -45 203 -85 212 -91 13 -7 24 -4 45 14 63 53 113 71 202 72 l85 1 33 49
c18 27 39 56 46 64 7 9 16 22 20 30 4 8 41 65 83 125 43 61 134 193 203 295
69 102 133 194 143 204 23 25 23 23 -6 87 -14 30 -26 70 -27 89 -4 54 11 138
27 151 8 6 14 18 14 26 0 22 66 88 113 112 42 21 114 38 153 35 39 -2 133 -36
153 -55 11 -11 25 -19 31 -19 5 0 10 -4 10 -9 0 -5 7 -16 14 -24 23 -23 56
-86 56 -106 0 -29 18 -37 115 -54 50 -9 104 -19 120 -22 17 -3 55 -10 85 -15
30 -5 69 -12 85 -15 17 -4 39 -8 50 -10 48 -9 86 -17 185 -35 58 -11 114 -22
126 -24 15 -3 38 12 82 54 48 46 73 63 118 76 71 20 158 14 215 -15 l40 -21
47 32 c26 18 52 37 59 43 20 16 32 25 153 115 63 46 117 87 120 90 3 3 39 30
80 60 41 29 79 57 85 62 5 4 43 33 83 64 l73 56 -2 232 c-2 309 -23 431 -98
572 -44 82 -57 98 -131 173 -70 71 -159 140 -241 186 -29 17 -303 176 -319
185 -22 14 -368 213 -420 242 -25 14 -85 49 -135 78 -49 29 -108 62 -130 75
-22 12 -170 98 -330 190 -287 166 -476 265 -505 265 -9 0 -20 4 -25 9 -6 5
-27 12 -49 15 -21 4 -43 9 -49 13 -21 13 -211 12 -260 -1z"/>
<path d="M5100 2954 l-285 -216 0 -71 c-1 -103 -26 -171 -85 -225 -123 -115
-300 -113 -411 5 -38 39 -79 111 -79 137 0 13 -26 24 -80 32 -14 2 -36 6 -50
9 -23 5 -114 21 -168 30 -12 2 -30 6 -40 9 -9 3 -33 8 -52 10 -20 3 -47 7 -60
10 -14 3 -38 8 -55 11 -94 17 -278 53 -283 54 -1 1 -17 -18 -35 -41 -20 -27
-55 -54 -92 -73 -51 -26 -70 -30 -142 -31 l-82 0 -27 -40 c-57 -84 -129 -189
-137 -199 -4 -5 -86 -125 -182 -265 -96 -140 -178 -259 -183 -265 -21 -25 -21
-37 -4 -72 11 -21 23 -51 27 -68 11 -41 12 -115 2 -115 -5 0 -5 -5 -2 -10 11
-19 -42 -118 -87 -159 -174 -165 -480 -42 -490 197 l-1 37 -191 79 c-105 44
-234 97 -286 119 -52 21 -113 47 -135 57 -22 10 -51 21 -65 25 -14 4 -31 12
-37 17 -9 7 -24 1 -50 -20 -67 -52 -103 -65 -182 -67 l-74 -1 -56 -86 c-31
-47 -60 -92 -66 -101 -32 -52 -132 -207 -213 -329 -103 -157 -101 -137 -16
-198 42 -29 341 -206 444 -262 30 -17 66 -38 80 -47 14 -9 39 -23 55 -31 17
-8 32 -17 35 -21 5 -5 102 -61 182 -104 21 -11 101 -57 179 -102 78 -46 145
-83 150 -83 5 0 9 -4 9 -10 0 -5 4 -10 10 -10 5 0 33 -14 62 -31 29 -18 67
-39 83 -49 17 -9 113 -65 215 -124 209 -122 383 -209 450 -226 25 -6 52 -14
60 -17 34 -14 50 -15 175 -15 116 -1 139 2 215 27 110 35 339 149 356 176 3 5
9 7 14 4 4 -3 13 2 20 10 7 8 19 15 26 15 8 0 14 4 14 9 0 5 8 11 18 14 18 6
19 7 300 170 101 59 186 107 188 107 3 0 20 11 38 25 18 14 35 23 38 20 3 -3
11 1 18 10 7 8 16 15 20 15 5 0 52 26 107 59 54 32 130 75 168 96 39 21 77 43
85 50 8 7 29 19 45 27 17 8 46 24 65 35 19 11 107 62 195 113 88 51 189 113
225 138 85 59 226 204 269 275 31 54 80 163 86 196 2 9 4 16 5 16 2 0 8 29 24
115 10 58 14 230 15 758 1 375 0 682 -1 682 -2 -1 -131 -98 -288 -216z"/>
</g>
</svg>
